<?xml version="1.0" standalone="no"?>
<!DOCTYPE svg PUBLIC "-//W3C//DTD SVG 20010904//EN"
 "http://www.w3.org/TR/2001/REC-SVG-20010904/DTD/svg10.dtd">
<svg version="1.0" xmlns="http://www.w3.org/2000/svg"
 width="57.000000pt" height="60.000000pt" viewBox="0 0 57.000000 60.000000"
 preserveAspectRatio="xMidYMid meet">

<g transform="translate(0.000000,60.000000) scale(0.100000,-0.100000)"
fill="#000000" stroke="none">
<path d="M51 526 c-17 -20 -5 -38 78 -121 39 -38 71 -76 71 -85 0 -9 -32 -47
-71 -85 -83 -83 -95 -101 -78 -121 6 -8 16 -14 21 -14 6 0 47 36 92 80 45 44
89 80 97 80 8 0 46 -32 84 -71 83 -83 101 -95 121 -78 8 6 14 16 14 21 0 6
-36 47 -80 92 -44 45 -80 89 -80 96 0 7 36 51 80 96 44 45 80 86 80 92 0 5 -6
15 -14 21 -20 17 -38 5 -121 -78 -38 -39 -76 -71 -84 -71 -8 0 -52 36 -97 80
-45 44 -86 80 -92 80 -5 0 -15 -6 -21 -14z"/>
</g>
</svg>
