<?xml version="1.0" standalone="no"?>
<!DOCTYPE svg PUBLIC "-//W3C//DTD SVG 20010904//EN"
 "http://www.w3.org/TR/2001/REC-SVG-20010904/DTD/svg10.dtd">
<svg version="1.0" xmlns="http://www.w3.org/2000/svg"
 width="64.000000pt" height="64.000000pt" viewBox="0 0 64.000000 64.000000"
 preserveAspectRatio="xMidYMid meet">

<g transform="translate(0.000000,64.000000) scale(0.100000,-0.100000)"
fill="#000000" stroke="none">
<path d="M69 577 c-55 -37 -60 -55 -57 -225 l3 -154 33 -29 c18 -16 46 -32 62
-36 26 -5 29 -9 32 -52 2 -32 8 -47 19 -49 8 -1 50 20 92 48 74 49 77 50 152
50 90 0 123 15 154 70 18 33 21 54 21 165 0 111 -3 132 -21 165 -37 66 -53 70
-267 70 -180 0 -191 -1 -223 -23z m417 -45 c37 -29 44 -57 44 -167 0 -159 -20
-184 -143 -185 -72 0 -82 -3 -133 -35 -55 -36 -59 -35 -66 10 -2 14 -14 21
-41 26 -21 3 -49 16 -62 29 -24 23 -25 28 -25 156 l0 132 31 26 c30 26 32 26
202 26 148 0 175 -3 193 -18z"/>
</g>
</svg>
