<?xml version="1.0" standalone="no"?>
<!DOCTYPE svg PUBLIC "-//W3C//DTD SVG 20010904//EN"
 "http://www.w3.org/TR/2001/REC-SVG-20010904/DTD/svg10.dtd">
<svg version="1.0" xmlns="http://www.w3.org/2000/svg"
 width="62.000000pt" height="66.000000pt" viewBox="0 0 62.000000 66.000000"
 preserveAspectRatio="xMidYMid meet">

<g transform="translate(0.000000,66.000000) scale(0.100000,-0.100000)"
fill="#000000" stroke="none">
<path d="M306 604 c-3 -9 -6 -42 -6 -75 0 -50 -3 -59 -17 -59 -10 0 -40 -8
-66 -17 -114 -41 -183 -148 -194 -298 -5 -75 -4 -85 12 -91 18 -7 42 14 90 79
29 39 87 76 134 83 l41 7 0 -65 c0 -60 11 -88 33 -88 16 0 267 253 267 269 0
21 -251 271 -272 271 -9 0 -19 -7 -22 -16z m149 -339 c-49 -46 -93 -81 -97
-79 -4 3 -8 25 -8 49 0 44 -10 55 -49 55 -40 0 -123 -33 -167 -66 -25 -19 -48
-33 -51 -30 -3 2 3 28 12 57 32 97 114 161 220 171 27 3 30 7 33 43 5 75 8 74
105 -23 l92 -93 -90 -84z"/>
</g>
</svg>
