<?xml version="1.0" standalone="no"?>
<!DOCTYPE svg PUBLIC "-//W3C//DTD SVG 20010904//EN"
 "http://www.w3.org/TR/2001/REC-SVG-20010904/DTD/svg10.dtd">
<svg version="1.0" xmlns="http://www.w3.org/2000/svg"
 width="64.000000pt" height="67.000000pt" viewBox="0 0 64.000000 67.000000"
 preserveAspectRatio="xMidYMid meet">

<g transform="translate(0.000000,67.000000) scale(0.100000,-0.100000)"
fill="#000000" stroke="none">
<path d="M266 639 c-21 -17 -26 -29 -26 -68 0 -62 -44 -158 -64 -141 -9 6 -45
10 -93 8 l-78 -3 0 -190 0 -190 85 0 c76 0 86 2 94 20 8 19 16 20 147 17 160
-5 175 0 210 71 27 54 60 158 53 169 -3 4 -7 29 -10 55 -6 66 -37 96 -106 103
l-53 5 -7 50 c-5 40 -14 57 -42 83 -41 37 -73 40 -110 11z m92 -69 c8 -16 11
-43 7 -77 l-5 -53 67 0 c38 0 75 -6 84 -13 19 -14 36 -137 19 -137 -5 0 -10
-13 -10 -28 0 -16 -9 -37 -20 -47 -11 -10 -19 -23 -17 -29 3 -6 0 -19 -5 -28
-13 -26 -216 -26 -259 -1 -28 17 -29 19 -29 104 0 68 3 88 15 93 25 9 85 152
85 202 0 43 1 45 27 42 17 -2 33 -13 41 -28z m-220 -322 l-3 -143 -45 0 -45 0
-3 129 c-1 72 0 136 2 143 3 8 23 13 51 13 l46 0 -3 -142z"/>
</g>
</svg>
